<?xml version="1.0" encoding="utf-8"?>
<!-- Generator: Adobe Illustrator 24.2.0, SVG Export Plug-In . SVG Version: 6.00 Build 0)  -->
<svg version="1.1" id="Layer_1" xmlns="http://www.w3.org/2000/svg" xmlns:xlink="http://www.w3.org/1999/xlink" x="0px" y="0px"
	 viewBox="0 0 1000 1000" style="enable-background:new 0 0 1000 1000;" xml:space="preserve">
<style type="text/css">
	.st0{fill:#FFFFFF;}
</style>
<circle cx="500" cy="500" r="500"/>
<path class="st0" d="M311.9,363.8c-2.6,0.7-5.2,1-7.9,1.1c-8.5,0-14.3-8.1-17.2-24.3h-0.3c-8.2,17.1-19.6,25.6-34.3,25.6
	c-10.3,0-18.5-4-24.7-11.9s-9.3-17.9-9.3-30c0-13.8,3.6-25.1,10.7-33.8s16.8-13.1,28.9-13.1c6.7-0.1,13.3,2.1,18.7,6.2
	c5.5,4.2,9.6,10,12.4,17.5h0.3l7-21.7h14.3l-16,41.6c1.9,12.1,3.9,20.3,6,24.7c2.1,4.3,4.8,6.5,8.1,6.5c1.1,0,2.2-0.1,3.3-0.4
	L311.9,363.8z M283.1,321.2c-2.1-10.5-5.3-18.5-9.6-24.1c-4.3-5.6-9.5-8.4-15.6-8.4c-7.8,0-14.1,3.3-18.8,10c-4.7,6.7-7,14.9-7,24.8
	c0,8.7,2,16.1,5.9,22s9.3,8.9,15.9,8.9c5.9,0,11.2-2.5,16-7.5c4.8-5,8.8-12.4,12-22.1L283.1,321.2z"/>
<path class="st0" d="M407.1,565.9c0,7.7,0.7,13.8,2.1,18.4c1.3,4.4,3.3,8.6,6.1,12.3c3.3,4.1,7.2,7.6,11.7,10.4
	c5.1,3.4,11.9,6.7,20.6,10c8.7,3.3,19.9,6.7,33.6,10.3v23.4h-96.5v-268h12.4l195.1,125.8l184.2-134.1h12.1v275.1l-105.9,6.3v-25.4
	c10-1.7,19.8-4,29.5-6.9c7.5-2.5,13.4-5,17.7-7.7c3.9-2.3,7.2-5.3,10-8.9c2.5-3.5,4.3-7.5,5.3-11.7c1.2-4.6,1.7-11.3,1.7-20.3V432.2
	L583.9,550.7h-16.4L407.1,445V565.9z"/>
<path class="st0" d="M288.6,636.1c3.8,0.1,7.7-0.3,11.4-1.3c2.7-0.8,5.3-2.1,7.6-3.7c2.5-2,4.7-4.4,6.4-7.2c2.5-4,4.6-8.3,6.2-12.7
	c2-5.4,4.1-12.3,6.4-20.8H341V650H175.4v-7.7l77.8-120.5L170.3,408v-7.5h170l3.9,65.4h-15.7c-1-6.2-2.5-12.3-4.3-18.2
	c-1.2-3.8-2.8-7.5-4.8-10.9c-1.4-2.4-3.3-4.5-5.5-6.2c-2.2-1.5-4.6-2.7-7.2-3.3c-4.1-0.8-8.3-1.2-12.5-1.1H206l73.2,100.6V537
	l-65.3,99.1L288.6,636.1z"/>
<path class="st0" d="M379.2,324.1h-8.5v-50c0-11.2-4-16.8-12.1-16.7c-4-0.1-7.8,1.6-10.5,4.6c-2.8,3.2-4.3,7.3-4.1,11.5v30.1h-8.4
	v-35.6c0-8-0.6-13.6-1.8-16.9h8.6c1,2.8,1.5,5.8,1.4,8.9h0.2c3.8-6.7,9.6-10.1,17.4-10.1c11.8,0,17.7,7.1,17.7,21.4L379.2,324.1z"/>
<path class="st0" d="M406.2,233c1.5,0,3,0.6,4,1.6c1.1,1,1.7,2.5,1.7,4c0,3.1-2.5,5.7-5.7,5.7c-1.5,0-2.9-0.6-4-1.7
	c-1.1-1-1.7-2.5-1.7-4c0-1.5,0.6-3,1.7-4C403.3,233.6,404.7,233,406.2,233z M401.9,307.4l1-52.8h6.9l1,52.8H401.9z"/>
</svg>
